<?xml version="1.0" encoding="UTF-8"?>
<svg id="Layer_1" data-name="Layer 1" xmlns="http://www.w3.org/2000/svg" xmlns:xlink="http://www.w3.org/1999/xlink" viewBox="0 0 50 50">
  <defs>
    <style>
      .cls-1 {
        fill: #7db35a;
      }

      .cls-1, .cls-2, .cls-3, .cls-4, .cls-5, .cls-6, .cls-7, .cls-8, .cls-9, .cls-10, .cls-11, .cls-12, .cls-13, .cls-14, .cls-15 {
        stroke-width: 0px;
      }

      .cls-2 {
        fill: #f4bd40;
      }

      .cls-3 {
        fill: #5ba6f8;
      }

      .cls-4 {
        fill: #60c0fb;
      }

      .cls-6 {
        fill: #60a6fd;
      }

      .cls-7 {
        fill: #fff;
      }

      .cls-8 {
        fill: #5fa7fa;
      }

      .cls-9 {
        fill: #61bffd;
      }

      .cls-10 {
        fill: #60a4ec;
      }

      .cls-11 {
        fill: #5baafa;
      }

      .cls-12 {
        fill: #7cb45d;
      }

      .cls-13 {
        fill: url(#linear-gradient);
        opacity: .6;
      }

      .cls-14 {
        fill: #7eb45c;
      }

      .cls-15 {
        fill: #60befa;
      }
    </style>
    <linearGradient id="linear-gradient" x1="24.14" y1="55.57" x2="24.14" y2="-11.38" gradientTransform="translate(-.55 .12)" gradientUnits="userSpaceOnUse">
      <stop offset="0" stop-color="#1db1ff"/>
      <stop offset="0" stop-color="#24b3ff"/>
      <stop offset=".07" stop-color="#52c3ff"/>
      <stop offset=".13" stop-color="#7bd1ff"/>
      <stop offset=".2" stop-color="#9fddff"/>
      <stop offset=".28" stop-color="#bde8ff"/>
      <stop offset=".36" stop-color="#d5f0ff"/>
      <stop offset=".45" stop-color="#e7f7ff"/>
      <stop offset=".56" stop-color="#f5fbff"/>
      <stop offset=".7" stop-color="#fcfeff"/>
      <stop offset=".98" stop-color="#fff"/>
    </linearGradient>
  </defs>
  <rect class="cls-7" x="-2.33" y="-1.82" width="55" height="55"/>
  <rect class="cls-13" x="-8.2" y="-11.26" width="63.6" height="66.95" transform="translate(-3.8 4.9) rotate(-10.99)"/>
  <g>
    <path class="cls-5" d="m35.64,16.05c0,.62-.06,1.25-.18,1.86-.06.31-.14.62-.23.92-.18.58-.44,1.14-.77,1.66-.18.29-.65.36-.83-.06-.16-.38-.29-.78-.51-1.12-.3-.47-.65-.92-1.03-1.33-.56-.6-1.1-1.22-1.49-1.94-.54-1-.73-2.08-.67-3.21.02-.35.05-.69.06-1.04.01-.94,0-1.88-.37-2.76-.07-.16-.17-.31-.24-.47-.12-.25-.09-.51.09-.64.19-.15.43-.14.65.04.45.38.9.76,1.34,1.16.82.74,1.66,1.46,2.44,2.24.5.5.9,1.09,1.18,1.74.19.43.31.88.4,1.33.1.54.16,1.08.16,1.63Zm-3.26-5.02s.04-.03.05-.04c.23.24.48.46.69.71.85,1.03,1.45,2.19,1.81,3.48.01.05.11.56.15.6.03-.05.05-.57.05-.63,0-.17-.01-.34-.05-.5-.28-1.33-.87-2.49-1.87-3.41-.94-.86-1.92-1.7-2.88-2.54-.09-.08-.34-.29-.45-.35.06.2.1.32.12.36.22.54.41,1.09.41,1.68,0,.82.04,1.63-.01,2.44-.04.64,0,1.27.17,1.88.28,1.06.85,1.96,1.63,2.72.73.72,1.4,1.63,1.79,2.62.05-.15.09-.29.08-.37-.04-.5-.1-1-.14-1.5-.08-1.01-.29-1.99-.56-2.96-.12-.43-.26-.86-.39-1.29.49.81.82,1.68,1.05,2.6.24.92.38,2.13.37,3.08,0,0,.01-.02.02-.03,0-.01.01-.02.02-.03,0-.02.02-.03.03-.05.04-.07.08-.15.11-.23.03-.09.04-.18.05-.26s.03-.18.04-.26c.02-.17.04-.35.06-.53s.02-.35.03-.52,0-.34,0-.51-.01-.34-.03-.5-.03-.33-.06-.5-.05-.33-.08-.49-.07-.32-.11-.49-.09-.32-.13-.48-.1-.32-.16-.47-.12-.31-.18-.47-.13-.31-.2-.46-.15-.31-.23-.46-.16-.3-.25-.45-.17-.3-.27-.45-.19-.3-.29-.44-.2-.29-.3-.44c0,0-.07-.1-.07-.1Z"/>
    <path class="cls-5" d="m14.47,18.87c-.08,1.04-.53,1.76-1.34,2.27,0,0-.01,0-.02.01-.22.06-.37.2-.54.37-.21.22-.56.34-.87.42-.95.25-1.81.05-2.54-.61-.51-.47-.84-1.07-1.02-1.72-.2-.73-.37-1.47-.52-2.22-.17-.8-.52-1.49-1.09-2.08-.24-.25-.49-.49-.74-.74-.16-.16-.25-.35-.14-.57.1-.2.34-.31.58-.23,1.17.36,2.36.71,3.51,1.12,1.07.37,2.09.87,3.03,1.5.66.44,1.24.95,1.5,1.72.09.27.13.56.17.75Zm-8.25-4.6s-.02.04-.02.05c.07.06.14.11.2.17.06.06.12.14.18.2.88.84,1.42,1.85,1.59,3.07.12.86.33,1.71.76,2.49.72,1.31,1.77,1.57,3.07,1.14.18-.06.2-.15.13-.32-.25-.63-.5-1.26-.7-1.9-.19-.59-.45-1.13-.8-1.64-.08-.12-.17-.24-.28-.4.07.02.1.01.11.03.08.07.17.14.24.23.51.69,1.04,1.37,1.53,2.08.23.33.39.71.58,1.07.07.13.14.18.27.07,1.17-.99,1.11-2.31.24-3.18-.34-.34-.74-.64-1.16-.89-1.77-1.05-3.7-1.7-5.68-2.23-.08-.02-.17-.02-.26-.03Z"/>
    <path class="cls-5" d="m39.75,22.59c.03-.93.41-1.53,1.08-1.97.56-.37,1.19-.58,1.85-.72.67-.14,1.35-.32,2.03-.38,1.17-.09,2.34-.11,3.52-.15.2,0,.36.11.41.31.06.25-.08.4-.28.51-.29.17-.59.32-.88.5-.74.46-1.19,1.15-1.54,1.93-.35.78-.75,1.53-1.38,2.14-.53.52-1.15.86-1.92.81-.59-.04-1.16-.25-1.54-.68-.44-.51-.97-.98-1.18-1.66-.08-.25-.13-.5-.17-.64Zm8.28-2.73l-.06-.13c-.78.05-1.56.09-2.34.15-.66.05-1.33.1-1.98.21-.8.13-1.59.31-2.32.69-1.19.62-1.44,1.75-.79,2.87.14.24.27.26.43.07.52-.64,1.11-1.2,1.77-1.7.29-.22.6-.42.9-.63-.02-.02-.04-.04-.07-.05-.22.27-.44.54-.65.81-.21.28-.41.57-.62.86-.3.42-.61.85-.91,1.27-.09.12-.2.28-.03.4.87.62,1.97.74,2.78-.07.4-.4.73-.87,1.03-1.35.3-.47.49-1.01.77-1.5.43-.76,1.09-1.27,1.84-1.69.09-.05.17-.14.25-.21Z"/>
    <path class="cls-9" d="m19.29,32.72c.2-.23.37-.43.53-.62.89-1.04,1.45-2.26,1.96-3.51.5-1.23,1.27-2.27,2.28-3.15.93-.81,1.99-1.4,3.12-1.86.53-.22,1.1-.33,1.65-.5.87-.27,1.77-.25,2.66-.24,1.54.02,3.02.32,4.45.92.88.37,1.7.83,2.46,1.41.64.49,1.19,1.06,1.68,1.71.8,1.07,1.22,2.28,1.39,3.59.04.33.06.66.07.99,0,.09-.07.24-.15.27-.29.12-.59.22-.9.3-.78.21-1.58.06-2.36.1-.17,0-.35-.05-.52-.04-.2.01-.4.06-.6.09-.96.14-1.93.22-2.88.42-1.4.29-2.73.81-3.89,1.67-.76.56-1.46,1.21-2.18,1.82-.14.12-.62.07-.72-.09-.02-.04,0-.12.02-.18.05-.14.12-.28.14-.42.03-.21-.13-.31-.29-.18-.22.17-.41.37-.59.58-.52.59-1.04,1.19-1.54,1.79-.25.3-.49.62-.72.93-.12.16-.24.17-.33,0-.31-.58-.51-1.17-.55-1.84-.05-.99.28-1.81.95-2.5.32-.33.68-.62,1.02-.93.11-.1.24-.2.32-.32.06-.09.06-.21.08-.32-.09,0-.2-.04-.27,0-.38.19-.76.04-1.14.02-.23-.01-.46-.06-.7-.08-.33-.03-.67-.07-1-.09-.17,0-.33.02-.5.03-.24.02-.49.03-.73.05-.6.06-1.2.13-1.8.19-.07,0-.13.01-.2.01-.06,0-.11,0-.23-.02Zm18.62-3.31c-.04-.19-.06-.44-.14-.68-.12-.35-.25-.69-.56-.93-.55-.42-1.15-.5-1.82-.36-.89.18-1.52.64-1.74,1.53-.09.35-.05.74-.03,1.11,0,.18.2.26.35.25.16-.02.31-.12.3-.34,0-.15,0-.3,0-.46,0-.33.1-.62.3-.88.37-.49.89-.6,1.47-.6.66,0,1.03.5,1.08.98.03.28,0,.57.07.85.03.13.17.3.3.34.16.05.33-.05.36-.26.03-.16.04-.33.07-.56Z"/>
    <path class="cls-15" d="m5.66,42.05c.57-.08,1.14-.13,1.7-.24.86-.17,1.59-.62,2.3-1.13.78-.56,1.67-.85,2.65-.9,1.29-.06,2.41.32,3.43,1.08.81.61,1.72.95,2.73,1.08,1.55.2,2.93-.21,4.18-1.12.95-.7,2-1.05,3.19-1.02,1.13.02,2.12.36,3.02,1.03.64.48,1.34.82,2.12,1,1.47.34,2.87.13,4.19-.58.3-.16.58-.38.87-.57,1.77-1.15,3.59-1.18,5.45-.21.3.15.31.22.16.52-.39.81-1.02,1.38-1.85,1.68-.37.13-.78.18-1.17.19-1.49.02-2.98,0-4.47,0-8.5,0-16.99,0-25.49,0-.61,0-1.24-.02-1.84-.13-.36-.06-.68-.31-1.02-.48-.07-.03-.15-.06-.22-.08.03-.04.07-.07.1-.11Z"/>
    <path class="cls-3" d="m4.43,38.26c.3.08.59.15.88.22.76.18,1.51.16,2.27.03.88-.15,1.64-.57,2.34-1.1.67-.51,1.41-.87,2.27-.92.22-.01.44-.09.66-.08,1.06.02,2.05.3,2.9.97.77.62,1.63,1.04,2.6,1.18.61.09,1.27.11,1.87,0,.93-.18,1.79-.58,2.52-1.21.04-.03.08-.05.15-.1.26.74.46,1.49,1.07,2.04-.04.03-.08.09-.13.1-.75.23-1.34.71-1.98,1.12-.64.41-1.36.64-2.12.73-.98.12-1.91-.05-2.78-.47-.46-.22-.87-.53-1.3-.81-.74-.48-1.54-.77-2.41-.85-.41-.04-.83-.1-1.23-.04-1.15.16-2.19.59-3.13,1.31-.66.51-1.44.8-2.28.85-.5.03-1-.02-1.5-.04-.23,0-.39-.13-.47-.32-.34-.83-.44-1.68-.2-2.59Z"/>
    <path class="cls-10" d="m24.71,39.09c.22-.33.39-.64.62-.91.4-.48.84-.92,1.26-1.38.15-.17.33-.23.53-.12.51.28,1.05.52,1.51.86,1.25.91,2.63,1.25,4.14,1.04.95-.13,1.81-.52,2.57-1.12.7-.56,1.5-.86,2.4-.97,1.41-.17,2.63.22,3.7,1.12.08.07.16.16.21.25.26.57.38,1.17.37,1.79,0,.19-.06.26-.27.15-.69-.35-1.41-.62-2.2-.7-1.45-.15-2.77.15-3.94,1.01-.74.54-1.52.94-2.42,1.09-1.5.24-2.84-.11-4.05-1.02-.75-.57-1.59-.93-2.52-1.03-.56-.06-1.12-.03-1.68-.04-.05,0-.1,0-.22,0Z"/>
    <path class="cls-8" d="m21.08,10.82c.41.65.79,1.24,1.15,1.82-3.13,5.1-6.24,10.16-9.36,15.25-.21-.23-.36-.45-.56-.63-.22-.2-.46-.38-.71-.52-.15-.08-.18-.15-.1-.29.56-.93,1.1-1.86,1.67-2.79.95-1.55,1.91-3.1,2.86-4.65.67-1.08,1.34-2.17,2-3.25.56-.91,1.12-1.83,1.68-2.75.44-.71.89-1.43,1.37-2.2Z"/>
    <path class="cls-6" d="m31.51,22.08c-.13.02-.22.03-.3.04-.52.03-1.04.06-1.56.1-.24.02-.41-.05-.54-.26-.52-.82-1.05-1.64-1.58-2.45-.58-.89-1.16-1.77-1.73-2.65-.61-.93-1.22-1.86-1.83-2.8-.7-1.07-1.4-2.14-2.11-3.21-.42-.64-.14-1.48.57-1.66.32-.08.71.06.93.39.7,1.06,1.39,2.13,2.09,3.2.8,1.22,1.62,2.44,2.42,3.66.57.88,1.12,1.77,1.7,2.64.55.83,1.11,1.66,1.66,2.49.1.14.17.3.29.5Z"/>
    <path class="cls-4" d="m12.36,33.95c-.68.05-1.37.12-2.05.16-.69.04-1.38.11-2.07.09-.71-.02-1.41-.1-2.02-.55-.77-.56-1.21-1.53-.95-2.39.31-1.05,1.25-1.69,2.43-1.22.92.36,1.57,1.06,2.22,1.76.61.67,1.21,1.34,2.03,1.78.16.08.3.2.46.3-.01.02-.03.05-.04.07Z"/>
    <path class="cls-7" d="m13.41,33.47c-.14-.04-.24-.05-.34-.09-1.09-.48-1.93-1.25-2.69-2.14-.29-.34-.61-.66-.94-.96-.53-.47-.71-1.15-.39-1.78.36-.7.92-1.17,1.76-1.17.66,0,1.06.39,1.33.93.29.57.39,1.18.39,1.81,0,.9.11,1.79.47,2.62.11.25.25.49.4.77Z"/>
    <path class="cls-7" d="m30.47,37.7c.44-.39.81-.72,1.18-1.05,1.13-.99,2.14-2.08,3.06-3.27.08-.1.2-.22.31-.23.94-.12,1.89-.21,2.83-.32.01.03.03.07.04.1-.12.15-.23.3-.35.44-1.13,1.27-2.41,2.36-3.83,3.3-.51.34-1.04.66-1.55,1.01-.32.22-.65.25-1.01.18-.21-.04-.42-.1-.69-.16Z"/>
    <path class="cls-7" d="m32.45,37.8c.33-.21.66-.41.99-.63,1.73-1.15,3.35-2.43,4.65-4.07.14-.18.3-.29.55-.28.52.02,1.05.01,1.57,0,.27-.01.55-.08.91-.13-.16.2-.27.37-.4.5-.81.77-1.63,1.52-2.43,2.3-.23.22-.51.26-.79.3-.97.13-1.82.53-2.59,1.13-.64.5-1.38.81-2.18.95-.08.01-.17,0-.26,0,0-.02-.01-.04-.02-.06Z"/>
    <path class="cls-7" d="m34.4,33.35c-.22.27-.41.53-.62.78-1.04,1.22-2.18,2.33-3.45,3.32-.13.1-.24.11-.39.04-.49-.23-.92-.53-1.31-.88,1.1-1.43,4.56-3.4,5.77-3.26Z"/>
    <path class="cls-7" d="m23.36,34.54c-.14.4-.26.74-.38,1.09-.01.04-.03.08-.03.12-.1.55-.1.54-.64.68-1.49.38-3,.5-4.53.37-.57-.05-1.13-.18-1.69-.28-.04,0-.1-.01-.12-.04-.2-.26-.4-.53-.58-.82,2.76.33,5.4.03,7.96-1.12Z"/>
    <path class="cls-7" d="m24.33,33.35c-.36.59-.9.88-1.47,1.12-1,.43-2.04.73-3.11.89-1.25.19-2.51.22-3.77.07-.09-.01-.18-.03-.28-.03-.6-.04-.95-.26-1.3-.84.23.03.43.06.63.09,1.37.21,2.75.19,4.12-.04,1.39-.23,2.72-.66,3.98-1.28.38-.19.77-.06,1.19.02Z"/>
    <path class="cls-11" d="m8.47,35.03c-.18.31-.36.64-.56.96-.35.57-.71,1.14-1.05,1.72-.09.15-.21.24-.39.22-.5-.07-.99-.13-1.49-.22-.26-.05-.29-.13-.15-.37.49-.83.99-1.65,1.48-2.48.1-.16.2-.18.4-.14.57.13,1.14.22,1.75.33Z"/>
    <path class="cls-7" d="m41.59,32.66c-.03.37-.03.75-.09,1.12-.1.67-.24,1.33-.36,1.99-.01.07-.05.14-.09.21-.2.31-.23.29-.59.18-.54-.17-1.09-.28-1.64-.41-.1-.03-.21-.04-.38-.06,1.17-.92,2.18-1.94,3.08-3.06.02.01.05.03.07.04Z"/>
    <path class="cls-7" d="m22.63,33.25c-1.48.91-5.72,1.64-6.86,1.17.27-.05.52-.09.76-.15.31-.09.6-.22.91-.31.38-.11.76-.24,1.15-.3.95-.15,1.9-.29,2.86-.4.38-.04.78,0,1.18,0Z"/>
    <path class="cls-7" d="m16.28,36.85c2.05.38,4.07.32,6.08-.16-1.43,1.6-4.62,1.61-6.08.16Z"/>
    <path class="cls-1" d="m32.38,11.03s.55.8.59.88c.18.29.36.59.52.9s.31.61.44.92.25.62.35.94.19.64.26.96.12.66.15.99.05.67.04,1.01c0,.41-.04.81-.09,1.21-.03.2-.06.4-.14.59-.03.08-.08.15-.12.22,0-.96-.13-2.16-.37-3.08-.23-.91-.56-1.79-1.05-2.6.13.43.27.86.39,1.29.27.97.48,1.95.56,2.96.04.5.1,1,.14,1.5,0,.08-.02.19-.09.37-.39-.99-1.06-1.9-1.79-2.62-.78-.76-1.35-1.66-1.63-2.72-.16-.61-.21-1.24-.17-1.88.05-.81.02-1.63.01-2.44,0-.59-.2-1.14-.42-1.69-.02-.04-.07-.18-.12-.36.11.06.36.26.46.35.97.84,1.94,1.67,2.88,2.54,1.01.92,1.59,2.09,1.87,3.41.03.16.05.33.05.5,0,.05-.01.57-.05.63-.04-.04-.14-.55-.15-.6-.36-1.29-.96-2.45-1.81-3.48-.21-.25-.46-.48-.69-.71-.02.01-.04.03-.05.04Z"/>
    <path class="cls-12" d="m6.22,14.27c.09.01.18.01.26.03,1.98.53,3.91,1.18,5.68,2.23.42.25.82.55,1.16.89.88.87.93,2.19-.24,3.18-.13.11-.21.06-.27-.07-.19-.36-.35-.74-.58-1.07-.49-.71-1.01-1.39-1.53-2.08-.06-.09-.16-.15-.24-.23-.01-.01-.04-.01-.11-.03.11.16.19.27.28.4.34.51.61,1.05.8,1.64.2.64.45,1.27.7,1.9.07.17.06.26-.13.32-1.3.44-2.36.17-3.07-1.14-.42-.78-.64-1.63-.76-2.49-.17-1.22-.72-2.23-1.59-3.07-.06-.06-.12-.13-.18-.2-.06-.06-.13-.11-.2-.17,0-.02.02-.04.02-.05Z"/>
    <path class="cls-14" d="m48.03,19.86c-.08.07-.15.16-.25.21-.75.42-1.41.93-1.84,1.69-.28.49-.47,1.03-.77,1.5-.3.48-.64.95-1.03,1.35-.81.82-1.91.7-2.78.07-.17-.12-.06-.27.03-.4.3-.43.61-.85.91-1.27.21-.29.4-.58.62-.86.21-.28.43-.54.65-.81.02.02.04.04.07.05-.3.21-.61.41-.9.63-.65.5-1.25,1.06-1.77,1.7-.16.19-.29.17-.43-.07-.65-1.12-.39-2.24.79-2.87.73-.38,1.52-.56,2.32-.69.65-.11,1.32-.16,1.98-.21.78-.06,1.56-.1,2.34-.15l.06.13Z"/>
    <path class="cls-5" d="m37.9,29.41c-.03.23-.04.39-.07.56-.03.21-.19.31-.36.26-.13-.04-.27-.21-.3-.34-.06-.28-.04-.57-.07-.85-.05-.48-.42-.98-1.08-.98-.58,0-1.1.11-1.47.6-.2.26-.29.56-.3.88,0,.15,0,.3,0,.46.01.22-.14.32-.3.34-.15.02-.34-.06-.35-.25-.02-.37-.05-.76.03-1.11.22-.89.85-1.35,1.74-1.53.67-.13,1.27-.06,1.82.36.31.24.44.58.56.93.08.23.1.49.14.68Z"/>
    <path class="cls-5" d="m6.43,22.42c-.4,0-.73-.33-.73-.73s.33-.73.73-.73.73.33.73.73-.33.73-.73.73Zm0-.94c-.12,0-.22.1-.22.22s.1.22.22.22.22-.1.22-.22-.1-.22-.22-.22Z"/>
    <path class="cls-5" d="m12.56,13.65c-.55,0-.99-.45-.99-.99s.45-.99.99-.99.99.45.99.99-.45.99-.99.99Zm0-1.48c-.27,0-.49.22-.49.49s.22.49.49.49.49-.22.49-.49-.22-.49-.49-.49Z"/>
    <path class="cls-5" d="m27.64,9.7c-.48,0-.87-.39-.87-.87s.39-.87.87-.87.87.39.87.87-.39.87-.87.87Zm0-1.24c-.2,0-.36.16-.36.36s.16.36.36.36.36-.16.36-.36-.16-.36-.36-.36Z"/>
    <path class="cls-5" d="m40.8,18.91c-.59,0-1.06-.48-1.06-1.06s.48-1.06,1.06-1.06,1.06.48,1.06,1.06-.48,1.06-1.06,1.06Zm0-1.62c-.31,0-.56.25-.56.56s.25.56.56.56.56-.25.56-.56-.25-.56-.56-.56Z"/>
    <path class="cls-5" d="m34.53,10.6c-.36,0-.65-.29-.65-.65s.29-.65.65-.65.65.29.65.65-.29.65-.65.65Zm0-.79c-.08,0-.14.06-.14.14s.06.14.14.14.14-.06.14-.14-.06-.14-.14-.14Z"/>
    <path class="cls-2" d="m23.2,25.28l-2.22-2.93c.2-.29.79-.35.99-.38.59-.06.76.17,1.14.01.43-.17.65-.63.73-.79.21-.42.15-.77.24-.69.06.06,1.17,2.35,1.61,3.11.04.06-1.72,1.01-2.48,1.66Z"/>
    <path class="cls-5" d="m42.47,38.01c-.18-.49-.45-.94-.67-1.41-.05-.11-.09-.27-.06-.38.34-1.11.48-2.26.56-3.41.08-1.21-.05-2.41-.37-3.59-.25-.95-.63-1.83-1.2-2.63-.46-.66-1.03-1.22-1.65-1.75-1.2-1.02-2.59-1.67-4.07-2.13-.7-.22-1.43-.31-2.15-.44-.32-.06-.59-.13-.79-.46-.47-.78-.98-1.54-1.48-2.3-.79-1.2-1.58-2.39-2.37-3.59-1.01-1.54-2.02-3.09-3.04-4.63-.45-.69-.89-1.39-1.37-2.07-.73-1.03-1.98-.86-2.55.06-.1.16-.19.32-.29.48-.85,1.39-1.7,2.77-2.55,4.16-1.59,2.6-3.17,5.19-4.77,7.79-.91,1.48-1.84,2.95-2.73,4.44-.19.33-.44.46-.78.56-.73.2-1.28.67-1.67,1.31-.26.41-.32.88-.32,1.4-.14-.03-.25-.04-.36-.08-.5-.17-1-.22-1.51-.06-1.22.37-2.04,1.68-1.74,3.06.16.73.57,1.29,1.15,1.74.21.16.19.3.07.49-.31.48-.64.95-.92,1.45-.41.72-.94,1.38-1.09,2.24-.14.79-.13,1.56.08,2.33.22.83.71,1.49,1.35,2.04.66.56,1.42.86,2.29.89.85.02,1.71.02,2.56.03,9.29,0,18.58,0,27.87,0,.49,0,.98-.04,1.46-.1,1.01-.13,1.77-.69,2.39-1.47.43-.55.69-1.17.81-1.86.13-.71.13-1.42-.12-2.1Zm-10.82-1.37c1.13-.99,2.14-2.08,3.06-3.27.08-.1.2-.22.31-.23.94-.12,1.89-.21,2.83-.32.01.03.03.07.04.1-.12.15-.23.3-.35.44-1.13,1.27-2.41,2.36-3.83,3.3-.51.34-1.04.66-1.55,1.01-.32.22-.65.25-1.01.18-.21-.04-.42-.1-.69-.16.44-.39.81-.72,1.18-1.05Zm-1.32.8c-.13.1-.24.11-.39.04-.49-.23-.92-.53-1.31-.88,1.1-1.43,4.56-3.4,5.77-3.26-.22.27-.41.53-.62.78-1.04,1.22-2.18,2.33-3.45,3.32Zm3.11-.27c1.73-1.15,3.35-2.43,4.65-4.07.14-.18.3-.29.55-.28.52.02,1.05.01,1.57,0,.27-.01.55-.08.91-.13-.16.2-.27.37-.4.5-.81.77-1.63,1.52-2.43,2.3-.23.22-.51.26-.79.3-.97.13-1.82.53-2.59,1.13-.64.5-1.38.81-2.18.95-.08.01-.17,0-.26,0,0-.02-.01-.04-.02-.06.33-.21.66-.41.99-.63Zm8.08-4.56s.05.03.07.04c-.03.37-.03.75-.09,1.12-.1.67-.24,1.33-.36,1.99-.01.07-.05.14-.09.21-.2.31-.23.29-.59.18-.54-.17-1.09-.28-1.64-.41-.1-.03-.21-.04-.38-.06,1.17-.92,2.18-1.94,3.08-3.06Zm-5.58-8.87c.88.37,1.7.83,2.46,1.41.64.49,1.19,1.06,1.68,1.71.8,1.07,1.22,2.28,1.39,3.59.04.33.06.66.07.99,0,.09-.07.24-.15.27-.29.12-.59.22-.9.3-.78.21-1.58.06-2.36.1-.17,0-.35-.05-.52-.04-.2.01-.4.06-.6.09-.96.14-1.93.22-2.88.42-1.4.29-2.73.81-3.89,1.67-.76.56-1.46,1.21-2.18,1.82-.14.12-.62.07-.72-.09-.02-.04,0-.12.02-.18.05-.14.12-.28.14-.42.03-.21-.13-.31-.29-.18-.22.17-.41.37-.59.58-.52.59-1.04,1.19-1.54,1.79-.25.3-.49.62-.72.93-.12.16-.24.17-.33,0-.31-.58-.51-1.17-.55-1.84-.05-.99.28-1.81.95-2.5.32-.33.68-.62,1.02-.93.11-.1.24-.2.32-.32.06-.09.06-.21.08-.32-.09,0-.2-.04-.27,0-.38.19-.76.04-1.14.02-.23-.01-.46-.06-.7-.08-.33-.03-.67-.07-1-.09-.17,0-.33.02-.5.03-.24.02-.49.03-.73.05-.6.06-1.2.13-1.8.19-.07,0-.13.01-.2.01-.06,0-.11,0-.23-.02.2-.23.37-.43.53-.62.89-1.04,1.45-2.26,1.96-3.51.5-1.23,1.27-2.27,2.28-3.15.93-.81,1.99-1.4,3.12-1.86.53-.22,1.1-.33,1.65-.5.87-.27,1.77-.25,2.66-.24,1.54.02,3.02.32,4.45.92Zm-13.63,12.68c-1.49.38-3,.5-4.53.37-.57-.05-1.13-.18-1.69-.28-.04,0-.1-.01-.12-.04-.2-.26-.4-.53-.58-.82,2.76.33,5.4.03,7.96-1.12-.14.4-.26.74-.38,1.09-.01.04-.03.08-.03.12-.1.55-.1.54-.64.68Zm.05.26c-1.43,1.6-4.62,1.61-6.08.16,2.05.38,4.07.32,6.08-.16Zm.51-2.21c-1,.43-2.04.73-3.11.89-1.25.19-2.51.22-3.77.07-.09-.01-.18-.03-.28-.03-.6-.04-.95-.26-1.3-.84.23.03.43.06.63.09,1.37.21,2.75.19,4.12-.04,1.39-.23,2.72-.66,3.98-1.28.38-.19.77-.06,1.19.02-.36.59-.9.88-1.47,1.12Zm2.7-10.94c-.13.1-.28.21-.3.22-.24.16-.47.33-.71.49-.26.17-.51.35-.76.53-.13.09-.25.18-.38.27-.16.11-.33.22-.44.39.01-.02-.14-.18-.16-.2-.06-.08-.12-.16-.18-.25-.12-.16-.24-.33-.36-.49-.24-.33-.48-.66-.72-.99h0c-.11-.16-1.24-1.75-1.26-1.74,1.2-.72,2.39-1.44,3.61-2.18.63,1.27,1.26,2.52,1.88,3.76,0,.02-.1.1-.21.19Zm-.31-2.2c-.3-.6-.6-1.19-.89-1.79-.04-.08-.03-.18-.05-.26-.03-.13-.01-.32-.09-.37-.1-.07-.3-.07-.42-.02-.32.15-.61.35-.92.53-.19.11-.37.23-.56.34-.14.09-.25.09-.35-.08-.22-.4-.45-.79-.69-1.18-.07-.11-.17-.24-.28-.26-.12-.03-.31.02-.38.11-.07.09-.09.3-.04.41.25.51.53,1,.82,1.54-.24.16-.48.34-.73.5-.29.19-.59.36-.88.55-.09.06-.17.14-.23.23-.13.19-.05.33.17.39.1.03.21.08.27.15.85,1.15,1.68,2.3,2.53,3.45.08.11.11.2.01.31-.87.96-1.34,2.14-1.85,3.3-.57,1.31-1.29,2.51-2.42,3.42-.98.79-2.11,1.16-3.37,1.09-.17,0-.36-.12-.49-.24-.57-.51-.89-1.18-1-1.92-.13-.89-.18-1.8-.26-2.7,0-.1.04-.21.09-.3,1.08-1.78,2.17-3.56,3.26-5.34.99-1.63,1.98-3.26,2.98-4.88,1.01-1.64,2.02-3.27,3.03-4.91.02-.03.05-.06.11-.12,2,3.03,3.97,6.04,5.96,9.05-.83.28-1.63.54-2.45.82-.3-.6-.6-1.21-.9-1.82Zm-3.8,11.92c.38-.04.78,0,1.18,0-1.48.91-5.72,1.64-6.86,1.17.27-.05.52-.09.76-.15.31-.09.6-.22.91-.31.38-.11.76-.24,1.15-.3.95-.15,1.9-.29,2.86-.4Zm-7.51,1.91c.23.27.5.52.73.8-.7-.17-1.4-.3-2.11-.26-1.03.07-1.98.38-2.81,1.02-.52.41-1.06.78-1.69,1-.14.05-.29.07-.43.1-.02-.03-.05-.05-.07-.08.19-.34.37-.69.58-1.02.35-.55.72-1.08,1.08-1.62.05-.08.16-.17.25-.18.93-.09,1.87-.18,2.8-.25.25-.02.51,0,.76.03.35.04.66.18.9.46Zm8.48-25.98c.32-.08.71.06.93.39.7,1.06,1.39,2.13,2.09,3.2.8,1.22,1.62,2.44,2.42,3.66.57.88,1.12,1.77,1.7,2.64.55.83,1.11,1.66,1.66,2.49.1.14.17.3.29.5-.13.02-.22.03-.3.04-.52.03-1.04.06-1.56.1-.24.02-.41-.05-.54-.26-.52-.82-1.05-1.64-1.58-2.45-.58-.89-1.16-1.77-1.73-2.65-.61-.93-1.22-1.86-1.83-2.8-.7-1.07-1.4-2.14-2.11-3.21-.42-.64-.14-1.48.57-1.66Zm-10.92,17.28c.56-.93,1.1-1.86,1.67-2.79.95-1.55,1.91-3.1,2.86-4.65.67-1.08,1.34-2.17,2-3.25.56-.91,1.12-1.83,1.68-2.75.44-.71.89-1.43,1.37-2.2.41.65.79,1.24,1.15,1.82-3.13,5.1-6.24,10.16-9.36,15.25-.21-.23-.36-.45-.56-.63-.22-.2-.46-.38-.71-.52-.15-.08-.18-.15-.1-.29Zm-2.45,2.03c.36-.7.92-1.17,1.76-1.17.66,0,1.06.39,1.33.93.29.57.39,1.18.39,1.81,0,.9.11,1.79.47,2.62.11.25.25.49.4.77-.14-.04-.24-.05-.34-.09-1.09-.48-1.93-1.25-2.69-2.14-.29-.34-.61-.66-.94-.96-.53-.47-.71-1.15-.39-1.78Zm-3.79,2.76c.31-1.05,1.25-1.69,2.43-1.22.92.36,1.57,1.06,2.22,1.76.61.67,1.21,1.34,2.03,1.78.16.08.3.2.46.3-.01.02-.03.05-.04.07-.68.05-1.37.12-2.05.16-.69.04-1.38.11-2.07.09-.71-.02-1.41-.1-2.02-.55-.77-.56-1.21-1.53-.95-2.39Zm-.42,6.06c.49-.83.99-1.65,1.48-2.48.1-.16.2-.18.4-.14.57.13,1.14.22,1.75.33-.18.31-.36.64-.56.96-.35.57-.71,1.14-1.05,1.72-.09.15-.21.24-.39.22-.5-.07-.99-.13-1.49-.22-.26-.05-.29-.13-.15-.37Zm.24,3.85c-.23,0-.39-.13-.47-.32-.34-.83-.44-1.68-.2-2.59.3.08.59.15.88.22.76.18,1.51.16,2.27.03.88-.15,1.64-.57,2.34-1.1.67-.51,1.41-.87,2.27-.92.22-.01.44-.09.66-.08,1.06.02,2.05.3,2.9.97.77.62,1.63,1.04,2.6,1.18.61.09,1.27.11,1.87,0,.93-.18,1.79-.58,2.52-1.21.04-.03.08-.05.15-.1.26.74.46,1.49,1.07,2.04-.04.03-.08.09-.13.1-.75.23-1.34.71-1.98,1.12-.64.41-1.36.64-2.12.73-.98.12-1.91-.05-2.78-.47-.46-.22-.87-.53-1.3-.81-.74-.48-1.54-.77-2.41-.85-.41-.04-.83-.1-1.23-.04-1.15.16-2.19.59-3.13,1.31-.66.51-1.44.8-2.28.85-.5.03-1-.02-1.5-.04Zm36.54-.2c-.39.81-1.02,1.38-1.85,1.68-.37.13-.78.18-1.17.19-1.49.02-2.98,0-4.47,0-8.5,0-16.99,0-25.49,0-.61,0-1.24-.02-1.84-.13-.36-.06-.68-.31-1.02-.48-.07-.03-.15-.06-.22-.08.03-.04.07-.07.1-.11.57-.08,1.14-.13,1.7-.24.86-.17,1.59-.62,2.3-1.13.78-.56,1.67-.85,2.65-.9,1.29-.06,2.41.32,3.43,1.08.81.61,1.72.95,2.73,1.08,1.55.2,2.93-.21,4.18-1.12.95-.7,2-1.05,3.19-1.02,1.13.02,2.12.36,3.02,1.03.64.48,1.34.82,2.12,1,1.47.34,2.87.13,4.19-.58.3-.16.58-.38.87-.57,1.77-1.15,3.59-1.18,5.45-.21.3.15.31.22.16.52Zm.4-1.34c0,.19-.06.26-.27.15-.69-.35-1.41-.62-2.2-.7-1.45-.15-2.77.15-3.94,1.01-.74.54-1.52.94-2.42,1.09-1.5.24-2.84-.11-4.05-1.02-.75-.57-1.59-.93-2.52-1.03-.56-.06-1.12-.03-1.68-.04-.05,0-.1,0-.22,0,.22-.33.39-.64.62-.91.4-.48.84-.92,1.26-1.38.15-.17.33-.23.53-.12.51.28,1.05.52,1.51.86,1.25.91,2.63,1.25,4.14,1.04.95-.13,1.81-.52,2.57-1.12.7-.56,1.5-.86,2.4-.97,1.41-.17,2.63.22,3.7,1.12.08.07.16.16.21.25.26.57.38,1.17.37,1.79Z"/>
    <g>
      <circle class="cls-5" cx="22.48" cy="23.03" r=".35"/>
      <circle class="cls-5" cx="24.31" cy="22.24" r=".35"/>
      <circle class="cls-5" cx="23.09" cy="23.66" r=".35"/>
      <circle class="cls-5" cx="24.19" cy="23.48" r=".35"/>
      <circle class="cls-5" cx="23.84" cy="24.59" r=".35"/>
      <path class="cls-5" d="m25.37,23.83c0,.2-.16.35-.35.35s-.35-.16-.35-.35.16-.35.35-.35.35.16.35.35Z"/>
    </g>
  </g>
</svg>